<?xml version="1.0" encoding="UTF-8" standalone="no"?>
<svg width="142px" height="80px" viewBox="0 0 142 80" version="1.1" xmlns="http://www.w3.org/2000/svg" xmlns:xlink="http://www.w3.org/1999/xlink" xmlns:sketch="http://www.bohemiancoding.com/sketch/ns">
    <!-- Generator: Sketch 3.3.3 (12081) - http://www.bohemiancoding.com/sketch -->
    <title>Slice 1</title>
    <desc>Created with Sketch.</desc>
    <defs></defs>
    <g id="Page-1" stroke="none" stroke-width="1" fill="none" fill-rule="evenodd" sketch:type="MSPage">
        <path d="M142.182734,2.75023518 C139.918952,2.15256293 139.485884,1.92364206 137.121815,1.93839211 C132.980818,1.96435221 128.838909,1.9897223 124.697913,2.01332239 C117.006709,2.05757256 109.314593,2.09887272 101.623389,2.13604286 C93.0332374,2.17852302 84.4430854,2.21569316 75.8529333,2.24932328 C75.4444862,2.22513319 75.0369509,2.2015331 74.6285039,2.17734301 C61.9666452,1.42273016 49.284729,0.970788459 36.5654325,1.00146857 C30.2810005,1.01621863 23.9974802,1.13539908 17.7230771,1.35900992 C14.7381314,1.46521032 11.5507857,1.42391017 8.60777879,1.77142148 C7.61401253,1.88824192 6.7278283,2.05580255 6.03583876,2.43517399 C4.764912,2.43694399 3.49489695,2.44048401 2.22488189,2.44225401 C1.96413221,2.44225401 1.64685638,2.5708745 1.59944735,2.75023518 C1.52742208,3.02458621 0.516333288,5.6978863 0.513598151,6.67847 C0.512686439,6.87730075 0.541861229,57.0269001 2.0379809,57.4871018 C3.49672037,57.9360935 5.56904213,57.7732529 7.10892399,57.7921329 C8.76094644,57.812193 10.4129689,57.8316631 12.0649913,57.8517232 C25.2036754,58.9768574 51.4983502,59.7049202 64.7427929,60.0323714 C65.7994673,60.1320818 66.0110004,74.6620666 74.3084929,77.6415779 C76.6397409,78.5543113 82.9175667,80.3462441 81.7216245,79.0071132 C74.30849,70.7064124 80.7517854,62.6319212 84.9274272,59.8766108 C95.2917711,59.8471107 115.723018,59.8170206 126.087362,59.7875205 C128.997547,59.7786704 131.908644,59.7704104 134.81883,59.7621504 C136.686928,59.7568404 139.564291,60.1031717 141.305662,59.4689193 C141.839013,59.3320388 142.14626,59.2016483 142.182729,59.0287776 C142.40701,58.6865763 142.799051,2.9130758 142.182734,2.75023518 Z" id="Fill-66" fill="#121513" sketch:type="MSShapeGroup" transform="translate(71.513581, 40.243628) scale(-1, 1) translate(-71.513581, -40.243628) "></path>
        <text id="x" sketch:type="MSTextLayer" font-family="HanziPen TC" font-size="16" font-weight="normal" line-spacing="16" fill="#FFFFFF">
            <tspan x="128" y="17">x</tspan>
        </text>
        <path d="M14.054,37.398 C14.054,37.2 13.964,37.002 13.784,36.822 C13.604,36.642 13.424,36.552 13.244,36.552 C13.154,36.552 12.92,36.678 12.56,36.894 C11.426,37.56 10.418,37.884 9.554,37.884 C8.186,37.884 7.502,36.93 7.502,34.986 C7.502,33.42 7.88,31.836 8.654,30.252 C9.428,28.686 10.22,27.894 11.012,27.894 C11.408,27.894 11.804,28.128 12.2,28.56 C12.596,29.01 12.884,29.226 13.1,29.226 C13.316,29.226 13.514,29.154 13.694,28.992 C13.838,28.848 13.928,28.65 13.928,28.416 C13.928,28.164 13.784,27.876 13.532,27.552 C13.28,27.228 12.938,26.922 12.524,26.652 C12.056,26.364 11.624,26.22 11.246,26.22 C9.734,26.22 8.42,27.228 7.34,29.244 C6.386,31.044 5.918,32.898 5.918,34.824 C5.918,36.174 6.188,37.272 6.728,38.1 C7.376,39.036 8.312,39.522 9.536,39.522 C9.968,39.522 10.58,39.414 11.354,39.198 C12.164,38.964 12.812,38.694 13.316,38.37 C13.802,38.064 14.054,37.74 14.054,37.398 L14.054,37.398 Z M19.436,26.832 C19.436,26.616 19.274,26.364 18.986,26.04 C18.698,25.752 18.446,25.59 18.23,25.59 C17.996,25.59 17.78,25.932 17.582,26.58 C16.88,28.812 16.538,31.116 16.538,33.492 C16.538,34.104 16.574,34.95 16.646,36.03 C16.52,36.246 16.466,36.642 16.466,37.2 C16.466,37.812 16.592,38.37 16.862,38.892 C17.114,39.414 17.42,39.684 17.78,39.684 C17.87,39.684 17.978,39.63 18.104,39.522 C18.212,39.432 18.284,39.342 18.284,39.252 C18.284,39.198 18.266,39.09 18.248,38.946 C18.212,38.784 18.212,38.676 18.212,38.604 C18.032,36.408 17.942,34.86 17.942,33.996 C17.942,31.926 18.212,29.856 18.752,27.786 L18.878,27.606 C19.238,27.426 19.436,27.174 19.436,26.832 L19.436,26.832 Z M24.188,26.292 C24.188,25.536 23.882,25.14 23.27,25.068 C22.766,25.248 22.514,25.518 22.514,25.896 C22.514,26.652 22.766,27.12 23.288,27.3 C23.432,27.354 23.54,27.372 23.594,27.372 C23.99,27.372 24.188,27.012 24.188,26.292 L24.188,26.292 Z M23.36,33.258 C23.36,32.502 22.964,32.124 22.172,32.124 C21.884,32.268 21.758,32.466 21.758,32.7 C21.758,32.772 21.776,32.916 21.812,33.132 C21.326,35.166 21.092,36.534 21.092,37.236 C21.092,38.712 21.488,39.45 22.316,39.45 C22.424,39.45 22.532,39.396 22.64,39.288 C22.748,39.18 22.82,39.09 22.82,38.982 C22.82,38.658 22.694,38.388 22.46,38.172 C22.496,37.092 22.694,35.868 23.054,34.464 L23.36,33.258 Z M31.226,37.344 C31.226,37.164 31.154,36.984 31.01,36.804 C30.866,36.66 30.704,36.57 30.524,36.57 C30.38,36.57 30.164,36.696 29.912,36.93 C29.696,37.11 29.48,37.29 29.3,37.47 C28.994,37.704 28.616,37.812 28.166,37.812 C27.446,37.812 27.104,37.38 27.104,36.48 C27.104,35.922 27.266,35.364 27.59,34.824 C27.914,34.284 28.31,33.834 28.796,33.51 C29.012,33.636 29.336,33.69 29.786,33.69 C30.02,33.69 30.254,33.6 30.488,33.384 C30.686,33.168 30.794,32.97 30.794,32.754 C30.794,32.466 30.686,32.25 30.47,32.07 C30.236,31.908 29.984,31.818 29.714,31.818 C28.58,31.818 27.572,32.412 26.708,33.582 C26.006,34.518 25.664,35.544 25.664,36.66 C25.664,37.452 25.916,38.082 26.42,38.586 C26.924,39.072 27.554,39.324 28.31,39.324 C28.994,39.324 29.696,39.054 30.38,38.514 C30.938,38.082 31.226,37.704 31.226,37.344 L31.226,37.344 Z M40.262,31.35 C40.262,30.864 39.974,30.612 39.416,30.612 C39.326,30.612 39.182,30.702 38.984,30.846 C38.048,31.566 36.59,32.16 34.646,32.646 C34.754,31.206 34.952,29.676 35.222,28.038 C35.384,26.976 35.474,26.382 35.474,26.274 C35.474,25.824 35.222,25.59 34.754,25.59 C34.358,25.59 34.124,25.806 34.052,26.22 C33.962,26.76 33.908,27.192 33.872,27.48 C33.764,28.02 33.674,28.47 33.62,28.83 C33.476,29.766 33.35,31.044 33.206,32.664 C33.062,34.14 33.008,35.076 33.008,35.454 C33.008,35.562 33.008,35.778 33.026,36.12 C33.044,36.48 33.062,36.696 33.062,36.768 C33.062,36.84 33.026,36.93 32.972,37.074 C32.9,37.236 32.882,37.362 32.882,37.434 C32.882,38.478 33.17,39 33.764,39 C33.98,39 34.142,38.928 34.286,38.784 C34.43,38.64 34.52,38.46 34.52,38.244 C34.52,38.154 34.502,37.956 34.484,37.668 C34.466,37.38 34.466,37.146 34.466,36.984 C34.466,36.516 34.466,35.958 34.502,35.274 C35.834,36.696 36.788,37.704 37.4,38.298 C38.048,38.964 38.48,39.288 38.678,39.288 C39.218,39.288 39.506,39.018 39.506,38.496 C39.506,38.316 39.218,37.956 38.642,37.398 C36.986,35.796 35.87,34.68 35.312,34.032 C36.248,33.834 37.184,33.528 38.156,33.096 C39.56,32.484 40.262,31.908 40.262,31.35 L40.262,31.35 Z M53.51,35.04 C53.51,34.338 53.312,33.69 52.916,33.114 C52.502,32.556 51.98,32.16 51.35,31.944 C51.098,31.872 50.954,31.836 50.918,31.836 C50.774,31.836 50.612,31.926 50.396,32.07 C50.144,32.214 49.946,32.322 49.802,32.376 C49.19,32.682 48.686,33.222 48.326,33.978 C47.966,34.662 47.804,35.4 47.804,36.174 C47.804,37.092 48.038,37.848 48.542,38.442 C49.046,39.018 49.676,39.324 50.432,39.324 C51.296,39.324 52.034,38.928 52.628,38.1 C53.204,37.272 53.51,36.264 53.51,35.04 L53.51,35.04 Z M52.088,35.31 C52.088,35.922 51.908,36.48 51.584,37.002 C51.224,37.542 50.846,37.812 50.414,37.812 C50.054,37.812 49.766,37.65 49.55,37.308 C49.316,36.984 49.208,36.606 49.208,36.174 C49.208,35.598 49.334,35.058 49.622,34.554 C49.946,33.978 50.36,33.672 50.864,33.672 C51.044,33.78 51.278,33.834 51.566,33.834 C51.908,34.05 52.088,34.554 52.088,35.31 L52.088,35.31 Z M62.114,33.834 C62.114,33.564 61.988,33.348 61.772,33.168 C61.556,33.006 61.322,32.916 61.07,32.898 C59.612,33.708 58.244,34.896 56.966,36.444 C56.966,35.544 57.056,34.626 57.236,33.672 C57.326,33.24 57.416,32.844 57.506,32.484 C57.506,32.196 57.416,31.944 57.236,31.71 C57.056,31.512 56.822,31.404 56.552,31.404 C56.336,31.404 56.21,31.548 56.138,31.8 C55.742,33.258 55.544,34.68 55.544,36.084 C55.544,38.226 55.904,39.288 56.66,39.288 C56.84,39.288 57.02,39.126 57.2,38.838 C57.308,38.622 57.416,38.388 57.542,38.172 C58.154,37.164 59.198,36.102 60.692,34.968 L60.422,37.272 C60.35,37.938 60.314,38.28 60.314,38.298 C60.314,38.586 60.404,38.838 60.584,39.072 C60.764,39.288 60.98,39.396 61.25,39.396 C61.502,39.396 61.646,39.216 61.682,38.892 C61.97,36.354 62.114,34.662 62.114,33.834 L62.114,33.834 Z M76.64,34.824 C76.64,34.662 76.55,34.482 76.406,34.302 C76.406,33.888 76.334,33.528 76.226,33.204 C76.244,33.132 76.262,33.042 76.262,32.952 C76.262,32.736 76.136,32.52 75.92,32.34 C75.686,32.16 75.452,32.052 75.218,32.052 C74.228,32.052 73.148,32.628 71.96,33.744 C70.718,34.896 70.106,36.012 70.106,37.056 C70.106,37.614 70.286,38.1 70.682,38.532 C71.06,38.982 71.51,39.198 72.032,39.198 C72.842,39.198 73.742,38.694 74.75,37.686 C74.84,39.054 75.146,39.756 75.668,39.756 C75.848,39.756 76.028,39.684 76.19,39.576 C76.334,39.432 76.424,39.252 76.424,39.072 C76.424,39.018 76.37,38.802 76.298,38.37 C76.208,37.956 76.172,37.632 76.172,37.416 C76.172,36.696 76.28,35.976 76.532,35.22 C76.604,35.022 76.64,34.896 76.64,34.824 L76.64,34.824 Z M75.002,34.302 C75.002,34.914 74.642,35.634 73.958,36.462 C73.274,37.29 72.644,37.686 72.104,37.686 C71.726,37.686 71.546,37.47 71.546,37.02 C71.546,36.444 71.996,35.724 72.914,34.842 C73.742,34.05 74.336,33.636 74.678,33.636 C74.894,33.636 75.002,33.87 75.002,34.302 L75.002,34.302 Z M97.016,38.244 C97.016,38.19 96.926,38.01 96.746,37.722 C96.314,37.074 96.062,35.814 95.99,33.978 C95.972,33.546 95.774,33.33 95.378,33.33 C94.46,33.33 93.164,34.482 91.472,36.75 C91.274,36.21 91.184,35.238 91.184,33.87 C91.184,33.402 91.148,33.078 91.094,32.934 C91.004,32.718 90.806,32.592 90.518,32.592 C90.05,32.592 88.772,33.6 86.648,35.598 C86.99,34.05 87.17,33.06 87.17,32.592 C87.17,31.476 86.9,30.9 86.378,30.9 C86.144,30.9 85.928,30.99 85.73,31.17 C85.514,31.35 85.388,31.584 85.37,31.872 C85.55,32.232 85.64,32.592 85.64,32.934 C85.64,33.33 85.496,34.14 85.226,35.4 C84.938,36.696 84.812,37.596 84.812,38.136 C84.812,39.144 85.082,39.648 85.64,39.648 C86.018,39.648 86.288,39.396 86.432,38.892 C86.9,37.272 87.962,35.904 89.6,34.788 C89.708,36.282 89.96,37.434 90.392,38.226 C90.608,38.658 90.896,38.874 91.22,38.874 C91.544,38.874 91.886,38.604 92.246,38.046 C93.002,36.93 93.74,36.03 94.478,35.364 C94.766,37.848 95.288,39.09 96.044,39.09 C96.692,39.09 97.016,38.82 97.016,38.244 L97.016,38.244 Z M105.026,34.824 C105.026,34.662 104.936,34.482 104.792,34.302 C104.792,33.888 104.72,33.528 104.612,33.204 C104.63,33.132 104.648,33.042 104.648,32.952 C104.648,32.736 104.522,32.52 104.306,32.34 C104.072,32.16 103.838,32.052 103.604,32.052 C102.614,32.052 101.534,32.628 100.346,33.744 C99.104,34.896 98.492,36.012 98.492,37.056 C98.492,37.614 98.672,38.1 99.068,38.532 C99.446,38.982 99.896,39.198 100.418,39.198 C101.228,39.198 102.128,38.694 103.136,37.686 C103.226,39.054 103.532,39.756 104.054,39.756 C104.234,39.756 104.414,39.684 104.576,39.576 C104.72,39.432 104.81,39.252 104.81,39.072 C104.81,39.018 104.756,38.802 104.684,38.37 C104.594,37.956 104.558,37.632 104.558,37.416 C104.558,36.696 104.666,35.976 104.918,35.22 C104.99,35.022 105.026,34.896 105.026,34.824 L105.026,34.824 Z M103.388,34.302 C103.388,34.914 103.028,35.634 102.344,36.462 C101.66,37.29 101.03,37.686 100.49,37.686 C100.112,37.686 99.932,37.47 99.932,37.02 C99.932,36.444 100.382,35.724 101.3,34.842 C102.128,34.05 102.722,33.636 103.064,33.636 C103.28,33.636 103.388,33.87 103.388,34.302 L103.388,34.302 Z M113.54,32.826 C113.54,32.574 113.432,32.34 113.234,32.124 C113.018,31.908 112.802,31.8 112.568,31.8 C111.164,31.8 109.904,32.628 108.806,34.284 C108.698,33.528 108.572,32.988 108.428,32.664 C108.23,32.304 107.96,32.106 107.618,32.106 C107.474,32.106 107.348,32.196 107.258,32.34 C107.15,32.52 107.096,32.7 107.096,32.88 C107.096,33.672 107.258,34.302 107.582,34.752 C107.654,35.454 107.708,36.03 107.708,36.462 C107.708,36.948 107.654,37.38 107.564,37.776 C107.456,38.208 107.42,38.442 107.42,38.496 C107.42,38.802 107.492,39.054 107.672,39.288 C107.852,39.504 108.068,39.63 108.284,39.63 C108.5,39.63 108.68,39.468 108.788,39.144 C108.842,38.964 108.914,38.586 109.004,38.01 C109.328,35.814 110.228,34.356 111.686,33.636 C111.902,33.708 112.01,33.744 112.028,33.744 C112.316,33.744 112.64,33.654 113,33.438 C113.36,33.258 113.54,33.042 113.54,32.826 L113.54,32.826 Z M121.622,31.35 C121.622,30.864 121.334,30.612 120.776,30.612 C120.686,30.612 120.542,30.702 120.344,30.846 C119.408,31.566 117.95,32.16 116.006,32.646 C116.114,31.206 116.312,29.676 116.582,28.038 C116.744,26.976 116.834,26.382 116.834,26.274 C116.834,25.824 116.582,25.59 116.114,25.59 C115.718,25.59 115.484,25.806 115.412,26.22 C115.322,26.76 115.268,27.192 115.232,27.48 C115.124,28.02 115.034,28.47 114.98,28.83 C114.836,29.766 114.71,31.044 114.566,32.664 C114.422,34.14 114.368,35.076 114.368,35.454 C114.368,35.562 114.368,35.778 114.386,36.12 C114.404,36.48 114.422,36.696 114.422,36.768 C114.422,36.84 114.386,36.93 114.332,37.074 C114.26,37.236 114.242,37.362 114.242,37.434 C114.242,38.478 114.53,39 115.124,39 C115.34,39 115.502,38.928 115.646,38.784 C115.79,38.64 115.88,38.46 115.88,38.244 C115.88,38.154 115.862,37.956 115.844,37.668 C115.826,37.38 115.826,37.146 115.826,36.984 C115.826,36.516 115.826,35.958 115.862,35.274 C117.194,36.696 118.148,37.704 118.76,38.298 C119.408,38.964 119.84,39.288 120.038,39.288 C120.578,39.288 120.866,39.018 120.866,38.496 C120.866,38.316 120.578,37.956 120.002,37.398 C118.346,35.796 117.23,34.68 116.672,34.032 C117.608,33.834 118.544,33.528 119.516,33.096 C120.92,32.484 121.622,31.908 121.622,31.35 L121.622,31.35 Z M130.154,38.676 C130.154,38.496 130.082,38.316 129.938,38.136 C129.794,37.992 129.614,37.902 129.434,37.902 C129.29,37.902 129.056,37.938 128.75,37.974 C128.444,38.01 128.21,38.028 128.066,38.028 C127.526,38.028 127.058,37.776 126.626,37.254 C128.426,36.282 129.326,35.13 129.326,33.798 C129.326,33.294 129.11,32.808 128.678,32.376 C128.246,31.944 127.814,31.728 127.364,31.728 C126.59,31.728 125.96,32.178 125.456,33.06 C125.024,33.816 124.808,34.626 124.808,35.49 C124.808,35.67 124.826,35.922 124.88,36.228 L124.466,36.228 C124.214,36.228 123.98,36.138 123.728,35.958 C123.476,35.778 123.296,35.688 123.188,35.688 C122.72,35.688 122.486,35.94 122.486,36.444 C122.486,36.84 122.774,37.164 123.386,37.416 C123.854,37.614 124.304,37.704 124.772,37.704 L125.312,37.704 C125.96,38.946 126.968,39.558 128.336,39.558 C129.542,39.558 130.154,39.252 130.154,38.676 L130.154,38.676 Z M127.904,33.87 C127.904,34.464 127.364,35.112 126.284,35.814 L126.284,35.49 C126.284,35.004 126.356,34.536 126.536,34.086 C126.716,33.546 126.968,33.276 127.292,33.276 C127.436,33.276 127.58,33.348 127.724,33.456 C127.832,33.6 127.904,33.726 127.904,33.87 L127.904,33.87 Z M138.164,32.826 C138.164,32.574 138.056,32.34 137.858,32.124 C137.642,31.908 137.426,31.8 137.192,31.8 C135.788,31.8 134.528,32.628 133.43,34.284 C133.322,33.528 133.196,32.988 133.052,32.664 C132.854,32.304 132.584,32.106 132.242,32.106 C132.098,32.106 131.972,32.196 131.882,32.34 C131.774,32.52 131.72,32.7 131.72,32.88 C131.72,33.672 131.882,34.302 132.206,34.752 C132.278,35.454 132.332,36.03 132.332,36.462 C132.332,36.948 132.278,37.38 132.188,37.776 C132.08,38.208 132.044,38.442 132.044,38.496 C132.044,38.802 132.116,39.054 132.296,39.288 C132.476,39.504 132.692,39.63 132.908,39.63 C133.124,39.63 133.304,39.468 133.412,39.144 C133.466,38.964 133.538,38.586 133.628,38.01 C133.952,35.814 134.852,34.356 136.31,33.636 C136.526,33.708 136.634,33.744 136.652,33.744 C136.94,33.744 137.264,33.654 137.624,33.438 C137.984,33.258 138.164,33.042 138.164,32.826 L138.164,32.826 Z" id="Click-on-a-marker" fill="#FFFFFF" sketch:type="MSShapeGroup"></path>
    </g>
</svg>