<?xml version="1.0" encoding="UTF-8" standalone="no"?>
<svg width="142px" height="80px" viewBox="0 0 142 80" version="1.1" xmlns="http://www.w3.org/2000/svg" xmlns:xlink="http://www.w3.org/1999/xlink" xmlns:sketch="http://www.bohemiancoding.com/sketch/ns">
    <!-- Generator: Sketch 3.3.3 (12081) - http://www.bohemiancoding.com/sketch -->
    <title>Slice 1</title>
    <desc>Created with Sketch.</desc>
    <defs></defs>
    <g id="Page-1" stroke="none" stroke-width="1" fill="none" fill-rule="evenodd" sketch:type="MSPage">
        <path d="M141.253968,2.75023518 C139.005028,2.15256293 138.574798,1.92364206 136.226227,1.93839211 C132.112379,1.96435221 127.997624,1.9897223 123.883775,2.01332239 C116.242994,2.05757256 108.601307,2.09887272 100.960526,2.13604286 C92.4266896,2.17852302 83.8928536,2.21569316 75.3590175,2.24932328 C74.9532482,2.22513319 74.5483846,2.2015331 74.1426153,2.17734301 C61.5637663,1.42273016 48.9649912,0.970788459 36.3290809,1.00146857 C30.0858489,1.01621863 23.8435226,1.13539908 17.6102537,1.35900992 C14.644877,1.46521032 11.4784271,1.42391017 8.5547142,1.77142148 C7.56746295,1.88824192 6.68708844,2.05580255 5.9996355,2.43517399 C4.73704078,2.43694399 3.4753518,2.44048401 2.21366281,2.44225401 C1.95462257,2.44225401 1.63942676,2.5708745 1.59232853,2.75023518 C1.52077546,3.02458621 0.516315243,5.6978863 0.513598038,6.67847 C0.512692302,6.87730075 0.541675825,57.0269001 2.02798711,57.4871018 C3.47716327,57.9360935 5.53589913,57.7732529 7.06568571,57.7921329 C8.7068777,57.812193 10.3480697,57.8316631 11.9892617,57.8517232 C25.0418101,58.9768574 51.1641002,59.7049202 64.3217139,60.0323714 C65.3714608,60.1320818 65.5816072,74.6620666 73.8247023,77.6415779 C76.1406669,78.5543113 82.377336,80.3462441 81.1892343,79.0071132 C73.8246994,70.7064124 80.2257534,62.6319212 84.3740201,59.8766108 C94.6704166,59.8471107 114.967719,59.8170206 125.264115,59.7875205 C128.155222,59.7786704 131.047234,59.7704104 133.93834,59.7621504 C135.794192,59.7568404 138.652692,60.1031717 140.382646,59.4689193 C140.912501,59.3320388 141.217733,59.2016483 141.253963,59.0287776 C141.476774,58.6865763 141.866245,2.9130758 141.253968,2.75023518 Z" id="Fill-66" fill="#121513" sketch:type="MSShapeGroup"></path>
        <text id="Click-on-an-image" sketch:type="MSTextLayer" font-family="HanziPen TC" font-size="18" font-weight="bold" fill="#FFFFFF">
            <tspan x="7" y="39">Click on an image</tspan>
        </text>
        <text id="x" sketch:type="MSTextLayer" font-family="HanziPen TC" font-size="16" font-weight="normal" line-spacing="16" fill="#FFFFFF">
            <tspan x="128" y="17">x</tspan>
        </text>
    </g>
</svg>