<?xml version="1.0" encoding="UTF-8" standalone="no"?>
<svg width="142px" height="80px" viewBox="0 0 142 80" version="1.1" xmlns="http://www.w3.org/2000/svg" xmlns:xlink="http://www.w3.org/1999/xlink" xmlns:sketch="http://www.bohemiancoding.com/sketch/ns">
    <!-- Generator: Sketch 3.3.3 (12081) - http://www.bohemiancoding.com/sketch -->
    <title>Slice 1</title>
    <desc>Created with Sketch.</desc>
    <defs></defs>
    <g id="Page-1" stroke="none" stroke-width="1" fill="none" fill-rule="evenodd" sketch:type="MSPage">
        <path d="M141.253968,2.75023518 C139.005028,2.15256293 138.574798,1.92364206 136.226227,1.93839211 C132.112379,1.96435221 127.997624,1.9897223 123.883775,2.01332239 C116.242994,2.05757256 108.601307,2.09887272 100.960526,2.13604286 C92.4266896,2.17852302 83.8928536,2.21569316 75.3590175,2.24932328 C74.9532482,2.22513319 74.5483846,2.2015331 74.1426153,2.17734301 C61.5637663,1.42273016 48.9649912,0.970788459 36.3290809,1.00146857 C30.0858489,1.01621863 23.8435226,1.13539908 17.6102537,1.35900992 C14.644877,1.46521032 11.4784271,1.42391017 8.5547142,1.77142148 C7.56746295,1.88824192 6.68708844,2.05580255 5.9996355,2.43517399 C4.73704078,2.43694399 3.4753518,2.44048401 2.21366281,2.44225401 C1.95462257,2.44225401 1.63942676,2.5708745 1.59232853,2.75023518 C1.52077546,3.02458621 0.516315243,5.6978863 0.513598038,6.67847 C0.512692302,6.87730075 0.541675825,57.0269001 2.02798711,57.4871018 C3.47716327,57.9360935 5.53589913,57.7732529 7.06568571,57.7921329 C8.7068777,57.812193 10.3480697,57.8316631 11.9892617,57.8517232 C25.0418101,58.9768574 51.1641002,59.7049202 64.3217139,60.0323714 C65.3714608,60.1320818 65.5816072,74.6620666 73.8247023,77.6415779 C76.1406669,78.5543113 82.377336,80.3462441 81.1892343,79.0071132 C73.8246994,70.7064124 80.2257534,62.6319212 84.3740201,59.8766108 C94.6704166,59.8471107 114.967719,59.8170206 125.264115,59.7875205 C128.155222,59.7786704 131.047234,59.7704104 133.93834,59.7621504 C135.794192,59.7568404 138.652692,60.1031717 140.382646,59.4689193 C140.912501,59.3320388 141.217733,59.2016483 141.253963,59.0287776 C141.476774,58.6865763 141.866245,2.9130758 141.253968,2.75023518 Z" id="Fill-66" fill="#121513" sketch:type="MSShapeGroup"></path>
        <text id="x" sketch:type="MSTextLayer" font-family="HanziPen TC" font-size="16" font-weight="normal" line-spacing="16" fill="#FFFFFF">
            <tspan x="128" y="17">x</tspan>
        </text>
        <path d="M16.054,37.398 C16.054,37.2 15.964,37.002 15.784,36.822 C15.604,36.642 15.424,36.552 15.244,36.552 C15.154,36.552 14.92,36.678 14.56,36.894 C13.426,37.56 12.418,37.884 11.554,37.884 C10.186,37.884 9.502,36.93 9.502,34.986 C9.502,33.42 9.88,31.836 10.654,30.252 C11.428,28.686 12.22,27.894 13.012,27.894 C13.408,27.894 13.804,28.128 14.2,28.56 C14.596,29.01 14.884,29.226 15.1,29.226 C15.316,29.226 15.514,29.154 15.694,28.992 C15.838,28.848 15.928,28.65 15.928,28.416 C15.928,28.164 15.784,27.876 15.532,27.552 C15.28,27.228 14.938,26.922 14.524,26.652 C14.056,26.364 13.624,26.22 13.246,26.22 C11.734,26.22 10.42,27.228 9.34,29.244 C8.386,31.044 7.918,32.898 7.918,34.824 C7.918,36.174 8.188,37.272 8.728,38.1 C9.376,39.036 10.312,39.522 11.536,39.522 C11.968,39.522 12.58,39.414 13.354,39.198 C14.164,38.964 14.812,38.694 15.316,38.37 C15.802,38.064 16.054,37.74 16.054,37.398 L16.054,37.398 Z M21.436,26.832 C21.436,26.616 21.274,26.364 20.986,26.04 C20.698,25.752 20.446,25.59 20.23,25.59 C19.996,25.59 19.78,25.932 19.582,26.58 C18.88,28.812 18.538,31.116 18.538,33.492 C18.538,34.104 18.574,34.95 18.646,36.03 C18.52,36.246 18.466,36.642 18.466,37.2 C18.466,37.812 18.592,38.37 18.862,38.892 C19.114,39.414 19.42,39.684 19.78,39.684 C19.87,39.684 19.978,39.63 20.104,39.522 C20.212,39.432 20.284,39.342 20.284,39.252 C20.284,39.198 20.266,39.09 20.248,38.946 C20.212,38.784 20.212,38.676 20.212,38.604 C20.032,36.408 19.942,34.86 19.942,33.996 C19.942,31.926 20.212,29.856 20.752,27.786 L20.878,27.606 C21.238,27.426 21.436,27.174 21.436,26.832 L21.436,26.832 Z M26.188,26.292 C26.188,25.536 25.882,25.14 25.27,25.068 C24.766,25.248 24.514,25.518 24.514,25.896 C24.514,26.652 24.766,27.12 25.288,27.3 C25.432,27.354 25.54,27.372 25.594,27.372 C25.99,27.372 26.188,27.012 26.188,26.292 L26.188,26.292 Z M25.36,33.258 C25.36,32.502 24.964,32.124 24.172,32.124 C23.884,32.268 23.758,32.466 23.758,32.7 C23.758,32.772 23.776,32.916 23.812,33.132 C23.326,35.166 23.092,36.534 23.092,37.236 C23.092,38.712 23.488,39.45 24.316,39.45 C24.424,39.45 24.532,39.396 24.64,39.288 C24.748,39.18 24.82,39.09 24.82,38.982 C24.82,38.658 24.694,38.388 24.46,38.172 C24.496,37.092 24.694,35.868 25.054,34.464 L25.36,33.258 Z M33.226,37.344 C33.226,37.164 33.154,36.984 33.01,36.804 C32.866,36.66 32.704,36.57 32.524,36.57 C32.38,36.57 32.164,36.696 31.912,36.93 C31.696,37.11 31.48,37.29 31.3,37.47 C30.994,37.704 30.616,37.812 30.166,37.812 C29.446,37.812 29.104,37.38 29.104,36.48 C29.104,35.922 29.266,35.364 29.59,34.824 C29.914,34.284 30.31,33.834 30.796,33.51 C31.012,33.636 31.336,33.69 31.786,33.69 C32.02,33.69 32.254,33.6 32.488,33.384 C32.686,33.168 32.794,32.97 32.794,32.754 C32.794,32.466 32.686,32.25 32.47,32.07 C32.236,31.908 31.984,31.818 31.714,31.818 C30.58,31.818 29.572,32.412 28.708,33.582 C28.006,34.518 27.664,35.544 27.664,36.66 C27.664,37.452 27.916,38.082 28.42,38.586 C28.924,39.072 29.554,39.324 30.31,39.324 C30.994,39.324 31.696,39.054 32.38,38.514 C32.938,38.082 33.226,37.704 33.226,37.344 L33.226,37.344 Z M42.262,31.35 C42.262,30.864 41.974,30.612 41.416,30.612 C41.326,30.612 41.182,30.702 40.984,30.846 C40.048,31.566 38.59,32.16 36.646,32.646 C36.754,31.206 36.952,29.676 37.222,28.038 C37.384,26.976 37.474,26.382 37.474,26.274 C37.474,25.824 37.222,25.59 36.754,25.59 C36.358,25.59 36.124,25.806 36.052,26.22 C35.962,26.76 35.908,27.192 35.872,27.48 C35.764,28.02 35.674,28.47 35.62,28.83 C35.476,29.766 35.35,31.044 35.206,32.664 C35.062,34.14 35.008,35.076 35.008,35.454 C35.008,35.562 35.008,35.778 35.026,36.12 C35.044,36.48 35.062,36.696 35.062,36.768 C35.062,36.84 35.026,36.93 34.972,37.074 C34.9,37.236 34.882,37.362 34.882,37.434 C34.882,38.478 35.17,39 35.764,39 C35.98,39 36.142,38.928 36.286,38.784 C36.43,38.64 36.52,38.46 36.52,38.244 C36.52,38.154 36.502,37.956 36.484,37.668 C36.466,37.38 36.466,37.146 36.466,36.984 C36.466,36.516 36.466,35.958 36.502,35.274 C37.834,36.696 38.788,37.704 39.4,38.298 C40.048,38.964 40.48,39.288 40.678,39.288 C41.218,39.288 41.506,39.018 41.506,38.496 C41.506,38.316 41.218,37.956 40.642,37.398 C38.986,35.796 37.87,34.68 37.312,34.032 C38.248,33.834 39.184,33.528 40.156,33.096 C41.56,32.484 42.262,31.908 42.262,31.35 L42.262,31.35 Z M55.51,35.04 C55.51,34.338 55.312,33.69 54.916,33.114 C54.502,32.556 53.98,32.16 53.35,31.944 C53.098,31.872 52.954,31.836 52.918,31.836 C52.774,31.836 52.612,31.926 52.396,32.07 C52.144,32.214 51.946,32.322 51.802,32.376 C51.19,32.682 50.686,33.222 50.326,33.978 C49.966,34.662 49.804,35.4 49.804,36.174 C49.804,37.092 50.038,37.848 50.542,38.442 C51.046,39.018 51.676,39.324 52.432,39.324 C53.296,39.324 54.034,38.928 54.628,38.1 C55.204,37.272 55.51,36.264 55.51,35.04 L55.51,35.04 Z M54.088,35.31 C54.088,35.922 53.908,36.48 53.584,37.002 C53.224,37.542 52.846,37.812 52.414,37.812 C52.054,37.812 51.766,37.65 51.55,37.308 C51.316,36.984 51.208,36.606 51.208,36.174 C51.208,35.598 51.334,35.058 51.622,34.554 C51.946,33.978 52.36,33.672 52.864,33.672 C53.044,33.78 53.278,33.834 53.566,33.834 C53.908,34.05 54.088,34.554 54.088,35.31 L54.088,35.31 Z M64.114,33.834 C64.114,33.564 63.988,33.348 63.772,33.168 C63.556,33.006 63.322,32.916 63.07,32.898 C61.612,33.708 60.244,34.896 58.966,36.444 C58.966,35.544 59.056,34.626 59.236,33.672 C59.326,33.24 59.416,32.844 59.506,32.484 C59.506,32.196 59.416,31.944 59.236,31.71 C59.056,31.512 58.822,31.404 58.552,31.404 C58.336,31.404 58.21,31.548 58.138,31.8 C57.742,33.258 57.544,34.68 57.544,36.084 C57.544,38.226 57.904,39.288 58.66,39.288 C58.84,39.288 59.02,39.126 59.2,38.838 C59.308,38.622 59.416,38.388 59.542,38.172 C60.154,37.164 61.198,36.102 62.692,34.968 L62.422,37.272 C62.35,37.938 62.314,38.28 62.314,38.298 C62.314,38.586 62.404,38.838 62.584,39.072 C62.764,39.288 62.98,39.396 63.25,39.396 C63.502,39.396 63.646,39.216 63.682,38.892 C63.97,36.354 64.114,34.662 64.114,33.834 L64.114,33.834 Z M78.64,34.824 C78.64,34.662 78.55,34.482 78.406,34.302 C78.406,33.888 78.334,33.528 78.226,33.204 C78.244,33.132 78.262,33.042 78.262,32.952 C78.262,32.736 78.136,32.52 77.92,32.34 C77.686,32.16 77.452,32.052 77.218,32.052 C76.228,32.052 75.148,32.628 73.96,33.744 C72.718,34.896 72.106,36.012 72.106,37.056 C72.106,37.614 72.286,38.1 72.682,38.532 C73.06,38.982 73.51,39.198 74.032,39.198 C74.842,39.198 75.742,38.694 76.75,37.686 C76.84,39.054 77.146,39.756 77.668,39.756 C77.848,39.756 78.028,39.684 78.19,39.576 C78.334,39.432 78.424,39.252 78.424,39.072 C78.424,39.018 78.37,38.802 78.298,38.37 C78.208,37.956 78.172,37.632 78.172,37.416 C78.172,36.696 78.28,35.976 78.532,35.22 C78.604,35.022 78.64,34.896 78.64,34.824 L78.64,34.824 Z M77.002,34.302 C77.002,34.914 76.642,35.634 75.958,36.462 C75.274,37.29 74.644,37.686 74.104,37.686 C73.726,37.686 73.546,37.47 73.546,37.02 C73.546,36.444 73.996,35.724 74.914,34.842 C75.742,34.05 76.336,33.636 76.678,33.636 C76.894,33.636 77.002,33.87 77.002,34.302 L77.002,34.302 Z M87.226,33.834 C87.226,33.564 87.1,33.348 86.884,33.168 C86.668,33.006 86.434,32.916 86.182,32.898 C84.724,33.708 83.356,34.896 82.078,36.444 C82.078,35.544 82.168,34.626 82.348,33.672 C82.438,33.24 82.528,32.844 82.618,32.484 C82.618,32.196 82.528,31.944 82.348,31.71 C82.168,31.512 81.934,31.404 81.664,31.404 C81.448,31.404 81.322,31.548 81.25,31.8 C80.854,33.258 80.656,34.68 80.656,36.084 C80.656,38.226 81.016,39.288 81.772,39.288 C81.952,39.288 82.132,39.126 82.312,38.838 C82.42,38.622 82.528,38.388 82.654,38.172 C83.266,37.164 84.31,36.102 85.804,34.968 L85.534,37.272 C85.462,37.938 85.426,38.28 85.426,38.298 C85.426,38.586 85.516,38.838 85.696,39.072 C85.876,39.288 86.092,39.396 86.362,39.396 C86.614,39.396 86.758,39.216 86.794,38.892 C87.082,36.354 87.226,34.662 87.226,33.834 L87.226,33.834 Z M98.692,26.292 C98.692,25.536 98.386,25.14 97.774,25.068 C97.27,25.248 97.018,25.518 97.018,25.896 C97.018,26.652 97.27,27.12 97.792,27.3 C97.936,27.354 98.044,27.372 98.098,27.372 C98.494,27.372 98.692,27.012 98.692,26.292 L98.692,26.292 Z M97.864,33.258 C97.864,32.502 97.468,32.124 96.676,32.124 C96.388,32.268 96.262,32.466 96.262,32.7 C96.262,32.772 96.28,32.916 96.316,33.132 C95.83,35.166 95.596,36.534 95.596,37.236 C95.596,38.712 95.992,39.45 96.82,39.45 C96.928,39.45 97.036,39.396 97.144,39.288 C97.252,39.18 97.324,39.09 97.324,38.982 C97.324,38.658 97.198,38.388 96.964,38.172 C97,37.092 97.198,35.868 97.558,34.464 L97.864,33.258 Z M112.552,38.244 C112.552,38.19 112.462,38.01 112.282,37.722 C111.85,37.074 111.598,35.814 111.526,33.978 C111.508,33.546 111.31,33.33 110.914,33.33 C109.996,33.33 108.7,34.482 107.008,36.75 C106.81,36.21 106.72,35.238 106.72,33.87 C106.72,33.402 106.684,33.078 106.63,32.934 C106.54,32.718 106.342,32.592 106.054,32.592 C105.586,32.592 104.308,33.6 102.184,35.598 C102.526,34.05 102.706,33.06 102.706,32.592 C102.706,31.476 102.436,30.9 101.914,30.9 C101.68,30.9 101.464,30.99 101.266,31.17 C101.05,31.35 100.924,31.584 100.906,31.872 C101.086,32.232 101.176,32.592 101.176,32.934 C101.176,33.33 101.032,34.14 100.762,35.4 C100.474,36.696 100.348,37.596 100.348,38.136 C100.348,39.144 100.618,39.648 101.176,39.648 C101.554,39.648 101.824,39.396 101.968,38.892 C102.436,37.272 103.498,35.904 105.136,34.788 C105.244,36.282 105.496,37.434 105.928,38.226 C106.144,38.658 106.432,38.874 106.756,38.874 C107.08,38.874 107.422,38.604 107.782,38.046 C108.538,36.93 109.276,36.03 110.014,35.364 C110.302,37.848 110.824,39.09 111.58,39.09 C112.228,39.09 112.552,38.82 112.552,38.244 L112.552,38.244 Z M120.562,34.824 C120.562,34.662 120.472,34.482 120.328,34.302 C120.328,33.888 120.256,33.528 120.148,33.204 C120.166,33.132 120.184,33.042 120.184,32.952 C120.184,32.736 120.058,32.52 119.842,32.34 C119.608,32.16 119.374,32.052 119.14,32.052 C118.15,32.052 117.07,32.628 115.882,33.744 C114.64,34.896 114.028,36.012 114.028,37.056 C114.028,37.614 114.208,38.1 114.604,38.532 C114.982,38.982 115.432,39.198 115.954,39.198 C116.764,39.198 117.664,38.694 118.672,37.686 C118.762,39.054 119.068,39.756 119.59,39.756 C119.77,39.756 119.95,39.684 120.112,39.576 C120.256,39.432 120.346,39.252 120.346,39.072 C120.346,39.018 120.292,38.802 120.22,38.37 C120.13,37.956 120.094,37.632 120.094,37.416 C120.094,36.696 120.202,35.976 120.454,35.22 C120.526,35.022 120.562,34.896 120.562,34.824 L120.562,34.824 Z M118.924,34.302 C118.924,34.914 118.564,35.634 117.88,36.462 C117.196,37.29 116.566,37.686 116.026,37.686 C115.648,37.686 115.468,37.47 115.468,37.02 C115.468,36.444 115.918,35.724 116.836,34.842 C117.664,34.05 118.258,33.636 118.6,33.636 C118.816,33.636 118.924,33.87 118.924,34.302 L118.924,34.302 Z M128.662,33.564 C128.662,33.42 128.608,33.276 128.5,33.132 C128.5,32.52 128.338,32.016 128.032,31.638 C127.708,31.26 127.276,31.062 126.772,31.062 C125.566,31.062 124.54,31.584 123.694,32.61 C122.884,33.582 122.488,34.662 122.488,35.85 C122.488,36.552 122.668,37.11 123.046,37.506 C123.406,37.92 123.928,38.118 124.576,38.118 C125.332,38.118 125.98,37.866 126.52,37.344 C126.268,39.72 125.08,41.106 122.956,41.466 C122.848,41.412 122.704,41.394 122.542,41.394 C122.326,41.394 122.092,41.484 121.876,41.7 C121.66,41.898 121.57,42.114 121.57,42.348 C121.57,42.87 121.822,43.14 122.326,43.14 C122.65,43.14 122.992,43.086 123.352,42.996 C126.304,42.132 127.87,39.864 128.032,36.192 C128.068,35.418 128.122,34.95 128.212,34.77 C128.5,34.194 128.662,33.798 128.662,33.564 L128.662,33.564 Z M126.934,33.636 C126.862,33.816 126.808,33.942 126.808,34.014 C126.7,34.806 126.484,35.418 126.16,35.868 C125.746,36.462 125.242,36.75 124.666,36.75 C124.198,36.75 123.982,36.426 123.982,35.778 C123.982,35.148 124.198,34.5 124.648,33.852 C125.134,33.15 125.692,32.79 126.304,32.79 C126.682,32.79 126.898,33.078 126.934,33.636 L126.934,33.636 Z M137.464,38.676 C137.464,38.496 137.392,38.316 137.248,38.136 C137.104,37.992 136.924,37.902 136.744,37.902 C136.6,37.902 136.366,37.938 136.06,37.974 C135.754,38.01 135.52,38.028 135.376,38.028 C134.836,38.028 134.368,37.776 133.936,37.254 C135.736,36.282 136.636,35.13 136.636,33.798 C136.636,33.294 136.42,32.808 135.988,32.376 C135.556,31.944 135.124,31.728 134.674,31.728 C133.9,31.728 133.27,32.178 132.766,33.06 C132.334,33.816 132.118,34.626 132.118,35.49 C132.118,35.67 132.136,35.922 132.19,36.228 L131.776,36.228 C131.524,36.228 131.29,36.138 131.038,35.958 C130.786,35.778 130.606,35.688 130.498,35.688 C130.03,35.688 129.796,35.94 129.796,36.444 C129.796,36.84 130.084,37.164 130.696,37.416 C131.164,37.614 131.614,37.704 132.082,37.704 L132.622,37.704 C133.27,38.946 134.278,39.558 135.646,39.558 C136.852,39.558 137.464,39.252 137.464,38.676 L137.464,38.676 Z M135.214,33.87 C135.214,34.464 134.674,35.112 133.594,35.814 L133.594,35.49 C133.594,35.004 133.666,34.536 133.846,34.086 C134.026,33.546 134.278,33.276 134.602,33.276 C134.746,33.276 134.89,33.348 135.034,33.456 C135.142,33.6 135.214,33.726 135.214,33.87 L135.214,33.87 Z" id="Click-on-an-image" fill="#FFFFFF" sketch:type="MSShapeGroup"></path>
    </g>
</svg>