<?xml version="1.0" encoding="UTF-8" standalone="no"?>
<svg width="142px" height="80px" viewBox="0 0 142 80" version="1.1" xmlns="http://www.w3.org/2000/svg" xmlns:xlink="http://www.w3.org/1999/xlink" xmlns:sketch="http://www.bohemiancoding.com/sketch/ns">
    <!-- Generator: Sketch 3.3.3 (12081) - http://www.bohemiancoding.com/sketch -->
    <title>Slice 1</title>
    <desc>Created with Sketch.</desc>
    <defs></defs>
    <g id="Page-1" stroke="none" stroke-width="1" fill="none" fill-rule="evenodd" sketch:type="MSPage">
        <path d="M142.182734,2.75023518 C139.918952,2.15256293 139.485884,1.92364206 137.121815,1.93839211 C132.980818,1.96435221 128.838909,1.9897223 124.697913,2.01332239 C117.006709,2.05757256 109.314593,2.09887272 101.623389,2.13604286 C93.0332374,2.17852302 84.4430854,2.21569316 75.8529333,2.24932328 C75.4444862,2.22513319 75.0369509,2.2015331 74.6285039,2.17734301 C61.9666452,1.42273016 49.284729,0.970788459 36.5654325,1.00146857 C30.2810005,1.01621863 23.9974802,1.13539908 17.7230771,1.35900992 C14.7381314,1.46521032 11.5507857,1.42391017 8.60777879,1.77142148 C7.61401253,1.88824192 6.7278283,2.05580255 6.03583876,2.43517399 C4.764912,2.43694399 3.49489695,2.44048401 2.22488189,2.44225401 C1.96413221,2.44225401 1.64685638,2.5708745 1.59944735,2.75023518 C1.52742208,3.02458621 0.516333288,5.6978863 0.513598151,6.67847 C0.512686439,6.87730075 0.541861229,57.0269001 2.0379809,57.4871018 C3.49672037,57.9360935 5.56904213,57.7732529 7.10892399,57.7921329 C8.76094644,57.812193 10.4129689,57.8316631 12.0649913,57.8517232 C25.2036754,58.9768574 51.4983502,59.7049202 64.7427929,60.0323714 C65.7994673,60.1320818 66.0110004,74.6620666 74.3084929,77.6415779 C76.6397409,78.5543113 82.9175667,80.3462441 81.7216245,79.0071132 C74.30849,70.7064124 80.7517854,62.6319212 84.9274272,59.8766108 C95.2917711,59.8471107 115.723018,59.8170206 126.087362,59.7875205 C128.997547,59.7786704 131.908644,59.7704104 134.81883,59.7621504 C136.686928,59.7568404 139.564291,60.1031717 141.305662,59.4689193 C141.839013,59.3320388 142.14626,59.2016483 142.182729,59.0287776 C142.40701,58.6865763 142.799051,2.9130758 142.182734,2.75023518 Z" id="Fill-66" fill="#121513" sketch:type="MSShapeGroup" transform="translate(71.513581, 40.243628) scale(-1, 1) translate(-71.513581, -40.243628) "></path>
        <text id="Click-on-a-marker" sketch:type="MSTextLayer" font-family="HanziPen TC" font-size="18" font-weight="bold" fill="#FFFFFF">
            <tspan x="5" y="39">Click on a marker</tspan>
        </text>
        <text id="x" sketch:type="MSTextLayer" font-family="HanziPen TC" font-size="16" font-weight="normal" line-spacing="16" fill="#FFFFFF">
            <tspan x="128" y="17">x</tspan>
        </text>
    </g>
</svg>